<svg width="18" height="18" viewBox="0 0 18 18" fill="none" xmlns="http://www.w3.org/2000/svg">
<path d="M0.833328 4.05908e-05C0.373091 4.05908e-05 -5.1856e-06 0.373137 -5.1856e-06 0.833374C-5.1856e-06 1.29361 0.373091 1.66671 0.833328 1.66671V4.05908e-05ZM2.74378 0.833374L3.54813 0.615528C3.44975 0.252276 3.12011 4.05908e-05 2.74378 4.05908e-05V0.833374ZM5.84825 12.2961L5.0439 12.5139C5.15246 12.9147 5.53956 13.1745 5.95162 13.123L5.84825 12.2961ZM15.4005 11.102L15.5039 11.9289C15.8578 11.8847 16.1443 11.6201 16.2165 11.2709L15.4005 11.102ZM16.8333 4.17666L17.6494 4.3455C17.7002 4.10007 17.6378 3.84482 17.4795 3.65047C17.3213 3.45613 17.084 3.34333 16.8333 3.34333V4.17666ZM3.64925 4.17666L2.84489 4.39451L3.64925 4.17666ZM0.833328 1.66671H2.74378V4.05908e-05H0.833328V1.66671ZM5.95162 13.123L15.5039 11.9289L15.2971 10.2751L5.74489 11.4692L5.95162 13.123ZM16.2165 11.2709L17.6494 4.3455L16.0173 4.00782L14.5844 10.9332L16.2165 11.2709ZM1.93942 1.05122L2.84489 4.39451L4.4536 3.95881L3.54813 0.615528L1.93942 1.05122ZM2.84489 4.39451L5.0439 12.5139L6.65261 12.0782L4.4536 3.95881L2.84489 4.39451ZM16.8333 3.34333H3.64925V5.00999H16.8333V3.34333ZM8 15.4228C8 15.6529 7.81345 15.8394 7.58333 15.8394V17.5061C8.73392 17.5061 9.66666 16.5734 9.66666 15.4228H8ZM7.58333 15.8394C7.35321 15.8394 7.16666 15.6529 7.16666 15.4228H5.5C5.5 16.5734 6.43274 17.5061 7.58333 17.5061V15.8394ZM7.16666 15.4228C7.16666 15.1927 7.35321 15.0061 7.58333 15.0061V13.3394C6.43274 13.3394 5.5 14.2722 5.5 15.4228H7.16666ZM7.58333 15.0061C7.81345 15.0061 8 15.1927 8 15.4228H9.66666C9.66666 14.2722 8.73392 13.3394 7.58333 13.3394V15.0061ZM14.6667 15.4228C14.6667 15.6529 14.4801 15.8394 14.25 15.8394V17.5061C15.4006 17.5061 16.3333 16.5734 16.3333 15.4228H14.6667ZM14.25 15.8394C14.0199 15.8394 13.8333 15.6529 13.8333 15.4228H12.1667C12.1667 16.5734 13.0994 17.5061 14.25 17.5061V15.8394ZM13.8333 15.4228C13.8333 15.1927 14.0199 15.0061 14.25 15.0061V13.3394C13.0994 13.3394 12.1667 14.2722 12.1667 15.4228H13.8333ZM14.25 15.0061C14.4801 15.0061 14.6667 15.1927 14.6667 15.4228H16.3333C16.3333 14.2722 15.4006 13.3394 14.25 13.3394V15.0061Z" fill="#3B944E"/>
</svg>
